<?xml version="1.0" standalone="no"?>
<!DOCTYPE svg PUBLIC "-//W3C//DTD SVG 20010904//EN"
 "http://www.w3.org/TR/2001/REC-SVG-20010904/DTD/svg10.dtd">
<svg version="1.0" xmlns="http://www.w3.org/2000/svg"
 width="16.000000pt" height="16.000000pt" viewBox="0 0 16.000000 16.000000"
 preserveAspectRatio="xMidYMid meet">
<metadata>
Created by potrace 1.11, written by Peter Selinger 2001-2013
</metadata>
<g transform="translate(0.000000,16.000000) scale(0.006154,-0.006154)"
fill="#000000" stroke="none">
<path d="M56 1823 c-4 -10 -14 -49 -22 -87 -17 -81 -5 -108 22 -51 24 52 56
62 212 68 l132 5 0 -417 c-1 -376 -6 -490 -23 -508 -3 -3 -21 -8 -39 -12 -18
-4 -32 -11 -31 -16 4 -16 335 -13 340 3 3 8 -8 12 -34 12 -53 0 -73 18 -84 71
-4 24 -8 229 -9 455 l0 411 118 -4 c141 -5 199 -22 208 -61 10 -45 13 -52 24
-52 6 0 10 37 10 96 0 95 0 96 -22 89 -39 -12 -547 -17 -658 -7 -58 5 -112 13
-121 16 -11 5 -19 1 -23 -11z"/>
<path d="M1285 1831 c-183 -48 -270 -223 -187 -376 l30 -54 -39 -27 c-58 -40
-108 -99 -137 -163 -20 -44 -26 -72 -26 -131 0 -66 4 -83 34 -138 50 -94 120
-144 230 -161 125 -20 270 20 365 102 l39 34 73 -53 c49 -35 90 -56 126 -64
67 -15 229 -10 235 8 2 8 -8 12 -30 12 -61 1 -211 78 -306 159 l-23 20 37 57
c20 32 47 83 60 115 26 63 42 163 27 172 -5 3 -52 9 -106 13 -86 6 -97 5 -97
-10 0 -11 9 -16 28 -16 17 0 38 -10 52 -25 20 -22 22 -31 18 -93 -3 -45 -14
-89 -31 -127 l-27 -57 -69 61 c-113 100 -295 295 -339 362 -52 80 -70 152 -53
211 23 77 81 120 161 120 89 0 160 -60 168 -142 7 -73 29 -66 37 13 4 34 5 80
3 102 -3 35 -8 42 -39 57 -40 20 -168 31 -214 19z m-105 -509 c13 -20 102
-115 197 -209 l173 -173 -38 -24 c-134 -89 -295 -84 -392 13 -77 77 -107 217
-67 312 14 35 82 119 96 119 3 0 17 -17 31 -38z"/>
<path d="M2257 1829 c-135 -32 -207 -131 -194 -269 7 -85 46 -149 141 -234
221 -197 246 -229 246 -311 0 -45 -28 -111 -56 -137 -90 -80 -265 -54 -313 46
-12 23 -21 57 -21 75 0 22 -4 31 -12 29 -9 -3 -14 -36 -16 -106 l-3 -101 30
-16 c49 -25 163 -37 239 -25 159 26 253 133 252 290 -1 110 -51 187 -198 308
-165 135 -212 200 -198 275 16 83 75 127 170 127 97 0 158 -41 172 -116 10
-53 21 -40 27 34 13 128 18 117 -75 130 -94 14 -137 14 -191 1z"/>
</g>
</svg>
