<?xml version="1.0" encoding="utf-8"?>
<!-- Generator: Adobe Illustrator 17.0.0, SVG Export Plug-In . SVG Version: 6.00 Build 0)  -->
<!DOCTYPE svg PUBLIC "-//W3C//DTD SVG 1.1//EN" "http://www.w3.org/Graphics/SVG/1.1/DTD/svg11.dtd">
<svg version="1.1" id="Layer_1" xmlns="http://www.w3.org/2000/svg" xmlns:xlink="http://www.w3.org/1999/xlink" x="0px" y="0px"
	 width="28.001px" height="28px" viewBox="0 0 28.001 28" enable-background="new 0 0 28.001 28" xml:space="preserve">
<g>
	<defs>
		<rect id="SVGID_1_" width="28.001" height="28"/>
	</defs>
	<clipPath id="SVGID_2_">
		<use xlink:href="#SVGID_1_"  overflow="visible"/>
	</clipPath>
	<path clip-path="url(#SVGID_2_)" fill="#FFFFFF" d="M28.001,14c0,7.731-6.269,14-13.999,14C6.268,28,0,21.731,0,14
		C0,6.267,6.268,0,14.002,0C21.732,0,28.001,6.267,28.001,14"/>
	<path clip-path="url(#SVGID_2_)" fill="#000000" d="M11.667,22.75h3.5V14h2.598l0.319-3.5h-2.782V9.1
		c0-0.682,0.455-0.84,0.774-0.84h1.963V5.261L15.336,5.25c-3.001,0-3.683,2.236-3.683,3.668V10.5H9.917V14h1.75V22.75z"/>
</g>
</svg>
