<?xml version="1.0" encoding="utf-8"?>
<!-- Generator: Adobe Illustrator 17.0.0, SVG Export Plug-In . SVG Version: 6.00 Build 0)  -->
<!DOCTYPE svg PUBLIC "-//W3C//DTD SVG 1.1//EN" "http://www.w3.org/Graphics/SVG/1.1/DTD/svg11.dtd">
<svg version="1.1" id="Layer_1" xmlns="http://www.w3.org/2000/svg" xmlns:xlink="http://www.w3.org/1999/xlink" x="0px" y="0px"
	 width="27.448px" height="27.445px" viewBox="0 0 27.448 27.445" enable-background="new 0 0 27.448 27.445" xml:space="preserve">
<path fill="#315096" d="M25.933,27.445c0.836,0,1.515-0.679,1.515-1.516V1.512C27.448,0.676,26.769,0,25.933,0H1.516
	C0.679,0,0,0.676,0,1.512V25.93c0,0.837,0.679,1.516,1.516,1.516H25.933z"/>
<path fill="#FFFFFF" d="M18.938,27.445V16.816h3.568l0.534-4.142h-4.102v-2.644c0-1.2,0.333-2.019,2.053-2.019h2.194V4.307
	c-0.38-0.049-1.682-0.164-3.197-0.164c-3.162,0-5.327,1.933-5.327,5.479v3.054h-3.577v4.142h3.577v10.629H18.938z"/>
</svg>
