<?xml version="1.0" encoding="utf-8"?>
<!-- Generator: Adobe Illustrator 17.0.0, SVG Export Plug-In . SVG Version: 6.00 Build 0)  -->
<!DOCTYPE svg PUBLIC "-//W3C//DTD SVG 1.1//EN" "http://www.w3.org/Graphics/SVG/1.1/DTD/svg11.dtd">
<svg version="1.1" xmlns="http://www.w3.org/2000/svg" xmlns:xlink="http://www.w3.org/1999/xlink" x="0px" y="0px"
	 width="1195.391px" height="114.251px" viewBox="0 0 1195.391 114.251" enable-background="new 0 0 1195.391 114.251"
	 xml:space="preserve">
<g>
	<path d="M55.142,70.945c0,13.708,0,24.99,0.716,30.994c0.431,4.135,1.288,7.279,5.569,7.855c2,0.275,5.139,0.541,6.421,0.535
		c0.857,0,1.146,0.416,1.146,0.834c0,0.699-0.715,1.13-2.284,1.13c-7.858,0-17.126,0.404-17.838,0.404
		c-0.712,0-9.402-0.404-13.685-0.404c-1.568,0-2.283-0.282-2.283-1.13c0-0.418,0.283-0.834,1.135-0.834
		c1.286,0,3.007-0.29,4.282-0.535c2.857-0.576,3.575-3.721,4.141-7.855c0.723-5.998,0.723-17.279,0.723-30.979V10.556l-21.172,0.291
		c-8.88,0.146-12.307,1.146-14.598,4.567c-1.573,2.435-2.004,3.43-2.432,4.429c-0.431,1.144-0.856,1.423-1.428,1.423
		c-0.429,0-0.716-0.424-0.716-1.277c0-1.435,2.863-13.715,3.147-14.768c0.285-0.855,0.857-2.715,1.424-2.715
		c1.003,0,2.431,1.427,6.301,1.626c4.144,0.43,9.58,0.714,11.305,0.714H78.5c9.118,0,12.968-1.43,14.111-1.43
		c0.716,0,0.716,0.857,0.716,1.717c0,4.282-0.434,14.133-0.434,15.7c0,1.29-0.426,1.859-0.998,1.859c-0.713,0-0.996-0.43-1.142-2.43
		l-0.147-1.564c-0.563-4.291-3.844-7.562-17.514-7.852l-17.95-0.291V70.945z"/>
	<path d="M149.714,70.945c0,13.708,0,24.99,0.715,30.994c0.426,4.135,1.284,7.279,5.568,7.855c1.998,0.275,5.139,0.541,6.424,0.535
		c0.854,0,1.146,0.416,1.146,0.834c0,0.699-0.71,1.13-2.291,1.13c-7.843,0-17.066,0.152-17.787,0.152
		c-0.705,0-9.45-0.152-13.732-0.152c-1.571,0-2.288-0.282-2.288-1.13c0-0.418,0.285-0.834,1.151-0.834
		c1.285,0,2.999-0.29,4.283-0.535c2.857-0.576,3.568-3.721,4.135-7.855c0.713-6.004,0.713-17.286,0.713-30.998V45.826
		c0-22.267,0-26.261-0.277-30.828c-0.289-4.852-1.715-7.275-4.865-7.989c-1.571-0.433-3.422-0.577-4.424-0.577
		c-0.572,0-1.136-0.277-1.136-0.835c0-0.837,0.704-1.122,2.279-1.122c4.71,0,13.695,0.351,14.4,0.351
		c0.721,0,9.704-0.351,13.983-0.351c1.576,0,2.289,0.285,2.289,1.122c0,0.558-0.578,0.835-1.144,0.835
		c-0.998,0-1.853,0.143-3.572,0.439c-3.858,0.704-4.998,3.142-5.283,8.126c-0.288,4.567-0.288,8.561-0.288,30.828V70.945z"/>
	<path d="M323.756,93.904c0.573,5.146,1.572,13.145,7.708,15.139c4.147,1.287,7.858,1.287,9.284,1.287
		c0.718,0,1.148,0.135,1.148,0.691c0,0.842-1.283,1.272-3.001,1.272c-3.142,0-18.543-0.431-23.795-0.849
		c-3.264-0.281-3.986-0.699-3.986-1.385c0-0.57,0.284-0.849,1.006-0.98c0.704-0.146,0.857-2.572,0.569-5.14l-6.857-73.623h-0.423
		l-34.973,74.157c-2.999,6.273-3.427,7.538-4.713,7.538c-0.992,0-1.712-1.4-4.427-6.537c-3.711-6.984-15.986-31.652-16.702-33.084
		c-1.286-2.568-17.268-36.797-18.84-40.644h-0.57l-5.707,66.17c-0.148,2.28-0.148,4.851-0.148,7.276c0,2.137,1.57,3.992,3.713,4.42
		c2.432,0.566,4.571,0.717,5.43,0.717c0.567,0,1.144,0.281,1.144,0.691c0,0.99-0.864,1.272-2.576,1.272
		c-5.286,0-12.084,0.404-13.224,0.404c-1.288,0-8.192-0.404-12.05-0.404c-1.426,0-2.431-0.282-2.431-1.272
		c0-0.41,0.717-0.691,1.437-0.691c1.143,0,2.139,0,4.279-0.428c4.71-0.859,5.141-6.426,5.71-11.833l10.285-92.992
		c0.286-1.566,0.71-2.57,1.57-2.57c0.855,0,1.423,0.576,2.138,2.14l43.686,89.708l41.967-89.558c0.567-1.286,1.137-2.29,2.139-2.29
		c0.994,0,1.422,1.145,1.706,3.853L323.756,93.904z"/>
	<path d="M379.095,45.849c0-22.279,0-26.272-0.289-30.843c-0.29-4.86-1.428-7.14-6.146-8.134c-1.138-0.296-3.566-0.439-4.85-0.456
		c-0.577,0-1.137-0.284-1.137-0.854c0-0.858,0.712-1.135,2.281-1.135c6.426,0,15.403,0.42,16.127,0.42
		c0.989,0,29.393,0,32.677-0.087c2.712-0.143,4.996-0.434,6.138-0.717c0.716-0.136,1.285-0.714,2-0.714
		c0.431,0,0.569,0.579,0.569,1.289c0,0.98-0.716,2.678-1.137,6.676c-0.146,1.424-0.428,7.707-0.716,9.404
		c-0.151,0.717-0.428,1.573-1.001,1.573c-0.857,0-1.143-0.715-1.143-1.855c0-1.002-0.146-3.424-0.854-5.134
		c-1-2.287-2.432-4.009-10.138-4.863c-2.432-0.284-18.001-0.43-19.57-0.43c-0.568,0-0.856,0.43-0.856,1.431v39.306
		c0,1,0.143,1.432,0.856,1.432c1.861,0,19.447,0,22.737-0.296c3.436-0.282,5.438-0.563,6.708-1.987
		c0.981-1.141,1.537-1.85,2.097-1.85c0.418,0,0.702,0.281,0.702,1.139c0,0.851-0.702,3.281-1.131,7.986
		c-0.27,2.883-0.55,8.205-0.55,9.215c0,1.15,0,2.725-0.982,2.725c-0.7,0-0.983-0.57-0.983-1.291c0-1.434,0-2.883-0.569-4.75
		c-0.575-2.016-1.854-4.454-7.438-5.037c-3.86-0.424-18.012-0.715-20.443-0.715c-0.715,0-1.003,0.428-1.003,1.004v12.647
		c0,4.867-0.138,21.441,0,24.443c0.436,9.867,2.578,11.723,16.591,11.723c3.712,0,9.999,0,13.711-1.57
		c3.632-1.57,5.31-4.434,6.294-10.295c0.282-1.566,0.572-2.141,1.283-2.141c0.867,0,0.867,1.141,0.867,2.141
		c0,1.146-1.147,10.865-1.867,13.863c-0.975,3.712-2.103,3.712-7.562,3.712c-21.597,0-31.414-0.018-35.529-0.123
		c-0.71,0-9.455-0.404-13.744-0.305c-1.562,0-2.282-0.278-2.282-1.229c0-0.418,0.286-0.834,1.146-0.834
		c1.279,0,2.998-0.29,4.283-0.58c2.861-0.564,3.565-3.711,4.146-7.847c0.712-5.997,0.712-17.279,0.712-30.958V45.849z"/>
	<path d="M562.416,106.756c-15.993,0-28.555-12.853-28.555-30.706c0-11.421,5.423-19.131,12.848-23.991
		c3.993,5.851,13.133,15.997,16.856,19.989c3.703,4.002,17.836,17.571,25.84,24.142
		C584.555,101.183,575.693,106.756,562.416,106.756z M557.419,114.251c21.127,0,32.413-12.064,35.697-15.351
		c15.761,12.412,19.183,13.393,29.74,13.393h13.995c1.284,0,2.421-0.431,2.421-0.98c0-0.849-0.704-0.983-1.997-0.983
		c-5.137,0-12.419-2.859-16.988-5.581c-3.998-2.286-10.267-6.146-19.689-14.154c6.293-7.718,14.116-22.165,14.116-33.741
		c0-1.431-0.432-2.564-2.557-2.84c-7.969-0.848-13.71-0.994-17.158-0.994c-1.14,0-2.288,0.289-2.288,0.994
		c0,0.693,0.859,0.971,1.724,0.971c2.148,0,5.159,0.438,7.028,2.294c2.148,2.14,2.726,4.86,2.726,7.007
		c0,8.725-3.304,18.301-7.322,23.73c-4.584-3.859-22.124-20.301-26.995-25.592c-14.895-16.098-22.63-25.338-22.63-36.441
		c0-13.382,9.598-18.652,18.186-18.652c6.303,0,11.176,2.988,14.325,6.267c3.576,3.696,4.439,8.395,4.439,12.1
		c0,2.134,0.143,2.705,0.837,2.705c0.555,0,0.977-0.288,1.395-2.419c0.421-2.14,0.983-12.102,0.983-16.376
		c0-1.704-0.145-2.56-1.823-3.558c-3.826-2.121-9.989-3.541-17.296-3.541c-19.183,0-30.688,14.925-30.688,26.175
		c0,6.405,1.702,12.243,6.945,19.646c-11.113,6.523-21.766,17.66-21.766,34.373C522.782,95.189,532.439,114.251,557.419,114.251z"/>
	<path d="M706.11,110.351c-1.997-1.008-2.137-1.576-2.137-5.431c0-7.144,0.567-12.853,0.711-15.142
		c0.14-1.578,0.429-2.283,1.143-2.283c0.857,0,1.004,0.428,1.004,1.57c0,1.279,0,3.281,0.42,5.279
		c2.148,10.575,11.567,14.568,21.104,14.568c13.716,0,20.435-9.824,20.435-18.943c0-9.824-4.142-15.52-16.427-25.639l-6.434-5.269
		c-15.139-12.393-18.573-21.214-18.573-30.902c0-15.238,11.437-25.654,29.576-25.654c5.571,0,9.722,0.576,13.313,1.255
		c2.702,0.564,3.854,0.713,4.994,0.713c1.143,0,1.429,0.285,1.429,0.999c0,0.714-0.575,5.421-0.575,15.313
		c0,2.289-0.286,3.278-0.999,3.278c-0.858,0-0.994-0.706-1.148-1.852c-0.136-1.71-0.998-5.568-1.849-7.143
		c-0.852-1.567-4.716-7.561-17.876-7.561c-9.865,0-17.579,6.128-17.579,16.522c0,8.117,4.002,12.954,17.427,23.918l4.009,3.142
		c16.851,13.24,20.854,22.073,20.854,33.465c0,5.852-2.291,16.674-12.142,23.646c-6.142,4.311-13.861,6.032-21.546,6.032
		C718.536,114.234,711.97,113.224,706.11,110.351z"/>
	<path d="M844.268,70.945c0,13.708,0,24.99,0.72,30.994c0.424,4.135,1.287,7.279,5.573,7.855c1.996,0.275,5.136,0.541,6.423,0.535
		c0.856,0,1.144,0.416,1.144,0.834c0,0.699-0.72,1.13-2.288,1.13c-7.854,0-16.693,0.404-17.406,0.404
		c-0.701,0-9.827-0.404-14.112-0.404c-1.576,0-2.287-0.282-2.287-1.13c0-0.418,0.273-0.834,1.144-0.834
		c1.289,0,2.994-0.29,4.27-0.535c2.866-0.576,3.571-3.721,4.158-7.855c0.702-5.998,0.702-17.279,0.702-30.979V10.556l-21.161,0.291
		c-8.873,0.146-12.309,1.146-14.607,4.567c-1.567,2.435-1.996,3.43-2.425,4.429c-0.425,1.144-0.856,1.423-1.422,1.423
		c-0.433,0-0.723-0.424-0.723-1.277c0-1.435,2.86-13.715,3.148-14.768c0.288-0.855,0.852-2.715,1.421-2.715
		c1.008,0,2.432,1.427,6.306,1.626c4.148,0.43,9.582,0.714,11.304,0.714h53.485c9.118,0,12.965-1.43,14.106-1.43
		c0.718,0,0.718,0.857,0.718,1.717c0,4.282-0.428,14.133-0.428,15.7c0,1.29-0.427,1.859-1.003,1.859c-0.707,0-0.995-0.43-1.141-2.43
		l-0.14-1.564c-0.58-4.291-3.847-7.562-17.526-7.852l-17.951-0.291V70.945z"/>
	<path d="M951.452,75.386c0-7.709-1.434-10.85-3.287-14.988c-0.998-2.286-20.134-33.687-25.133-41.115
		c-3.567-5.275-7.148-8.845-9.711-10.559c-2.143-1.423-4.852-2.292-6.136-2.292c-0.721,0-1.438-0.277-1.438-0.978
		c0-0.559,0.58-0.979,1.864-0.979c2.708,0,13.42,0.351,14.13,0.351c1.002,0,6.42-0.351,12.003-0.351
		c1.567,0,1.853,0.421,1.853,0.979c0,0.563-0.859,0.701-2.143,1.273c-1.148,0.573-1.852,1.432-1.852,2.564
		c0,1.718,0.704,3.425,1.852,5.567c2.291,4.14,23.69,40.963,26.254,45.111c2.697-5.986,20.837-37.26,23.697-41.965
		c1.851-2.999,2.426-5.427,2.426-7.279c0-2.002-0.575-3.578-2.279-3.998c-1.298-0.43-2.15-0.71-2.15-1.413
		c0-0.555,0.852-0.84,2.279-0.84c3.708,0,8.287,0.351,9.427,0.351c0.858,0,11.146-0.351,13.857-0.351c1.003,0,1.86,0.285,1.86,0.84
		c0,0.703-0.717,1.117-1.86,1.117c-1.572,0-4.287,0.583-6.571,2.004c-2.852,1.717-4.426,3.429-7.565,7.282
		c-4.71,5.713-24.705,39.26-27.277,45.389c-2.14,5.153-2.14,9.573-2.14,14.279v12.275c0,2.285,0,8.279,0.431,14.277
		c0.279,4.135,1.568,7.279,5.852,7.855c1.999,0.275,5.146,0.541,6.43,0.535c0.852,0,1.132,0.416,1.132,0.834
		c0,0.699-0.706,1.13-2.282,1.13c-7.852,0-16.921,0.404-17.636,0.404c-0.712,0-9.599-0.404-13.887-0.404
		c-1.569,0-2.281-0.282-2.281-1.13c0-0.418,0.284-0.834,1.142-0.834c1.284,0,3-0.29,4.289-0.535
		c2.854-0.576,4.137-3.721,4.418-7.855c0.435-6.004,0.435-11.998,0.435-14.304V75.386z"/>
	<path d="M1055.373,71.306c0,20.984,0.573,30.133,3.143,32.697c2.279,2.279,5.989,3.287,17.114,3.287
		c7.562,0,13.842-0.14,17.265-4.285c1.856-2.285,3.29-5.844,3.708-8.568c0.147-1.136,0.44-1.85,1.292-1.85
		c0.718,0,0.852,0.567,0.852,2.139c0,1.566-1.001,10.139-2.144,14.27c-0.996,3.262-1.42,3.825-8.99,3.825
		c-20.539,0-29.885-0.011-38.192-0.123c-1.302,0-9.79-0.404-14.005-0.305c-1.575,0-2.281-0.278-2.281-1.229
		c0-0.418,0.284-0.834,1.14-0.834c1.288,0,3-0.29,4.287-0.58c2.846-0.564,3.565-3.711,4.139-7.847
		c0.712-5.997,0.712-17.279,0.712-30.896V45.869c0-22.291,0-26.286-0.279-30.855c-0.293-4.86-1.437-7.148-6.148-8.143
		c-1.143-0.293-3.565-0.439-4.85-0.439c-0.576,0-1.148-0.277-1.148-0.835c0-0.837,0.717-1.122,2.283-1.122
		c6.431,0,15.415,0.351,16.124,0.351c0.72,0,11.113-0.351,15.397-0.351c1.574,0,2.283,0.285,2.283,1.122
		c0,0.558-0.575,0.835-1.14,0.835c-1.004,0-3.003,0.147-4.712,0.439c-4.143,0.71-5.275,3.142-5.555,8.143
		c-0.294,4.568-0.294,8.564-0.294,30.855V71.306z"/>
	<path d="M1142.239,45.849c0-22.279,0-26.272-0.292-30.843c-0.283-4.86-1.43-7.14-6.138-8.134c-1.144-0.296-3.568-0.439-4.855-0.456
		c-0.574,0-1.143-0.284-1.143-0.854c0-0.858,0.711-1.135,2.282-1.135c6.426,0,15.404,0.42,16.115,0.42c0.998,0,29.406,0,32.69-0.087
		c2.719-0.143,4.993-0.434,6.142-0.717c0.719-0.136,1.283-0.714,1.995-0.714c0.432,0,0.572,0.579,0.572,1.289
		c0,0.98-0.716,2.678-1.141,6.676c-0.144,1.424-0.431,7.707-0.708,9.404c-0.147,0.717-0.425,1.573-1.01,1.573
		c-0.857,0-1.134-0.715-1.134-1.855c0-1.002-0.148-3.424-0.867-5.134c-0.995-2.287-2.42-4.009-10.13-4.863
		c-2.43-0.284-17.996-0.43-19.562-0.43c-0.577,0-0.863,0.43-0.863,1.431v39.306c0,1,0.146,1.432,0.863,1.432
		c1.854,0,19.443,0,22.725-0.296c3.435-0.282,5.436-0.563,6.707-1.987c0.987-1.141,1.548-1.85,2.093-1.85
		c0.426,0,0.702,0.281,0.702,1.139c0,0.851-0.702,3.281-1.107,7.986c-0.284,2.883-0.561,8.205-0.561,9.215
		c0,1.15,0,2.725-0.982,2.725c-0.7,0-0.989-0.57-0.989-1.291c0-1.434,0-2.883-0.567-4.75c-0.57-2.016-1.86-4.454-7.439-5.037
		c-3.861-0.424-18.016-0.715-20.441-0.715c-0.718,0-1.004,0.428-1.004,1.004v12.647c0,4.867-0.144,21.441,0,24.443
		c0.428,9.867,2.57,11.723,16.586,11.723c3.721,0,10.008,0,13.71-1.57c3.635-1.57,5.32-4.434,6.302-10.295
		c0.281-1.566,0.563-2.141,1.281-2.141c0.856,0,0.856,1.141,0.856,2.141c0,1.146-0.437,11.105-0.823,14.164
		c-0.485,3.841-1.771,3.288-8.599,3.411c-21.584,0.388-31.064-0.018-35.171-0.123c-0.716,0-9.815-0.404-14.098-0.305
		c-1.566,0-2.279-0.278-2.279-1.229c0-0.418,0.283-0.834,1.135-0.834c1.29,0,3.008-0.29,4.285-0.58
		c2.857-0.564,3.577-3.711,4.146-7.847c0.715-5.997,0.715-17.279,0.715-30.958V45.849z"/>
</g>
</svg>
