<?xml version="1.0" encoding="utf-8"?>
<!-- Generator: Adobe Illustrator 17.0.0, SVG Export Plug-In . SVG Version: 6.00 Build 0)  -->
<!DOCTYPE svg PUBLIC "-//W3C//DTD SVG 1.1//EN" "http://www.w3.org/Graphics/SVG/1.1/DTD/svg11.dtd">
<svg version="1.1" id="Layer_1" xmlns="http://www.w3.org/2000/svg" xmlns:xlink="http://www.w3.org/1999/xlink" x="0px" y="0px"
	 width="28.002px" height="28px" viewBox="0 0 28.002 28" enable-background="new 0 0 28.002 28" xml:space="preserve">
<g>
	<defs>
		<rect id="SVGID_1_" width="28.002" height="28"/>
	</defs>
	<clipPath id="SVGID_2_">
		<use xlink:href="#SVGID_1_"  overflow="visible"/>
	</clipPath>
	<path clip-path="url(#SVGID_2_)" fill="#000000" d="M28.002,14c0,7.731-6.269,14-14,14C6.269,28,0,21.731,0,14
		C0,6.267,6.269,0,14.002,0C21.733,0,28.002,6.267,28.002,14"/>
	<path clip-path="url(#SVGID_2_)" fill="#FFFFFF" d="M22.269,7.258c-0.694,0.406-1.463,0.699-2.281,0.858
		C19.334,7.429,18.401,7,17.368,7c-1.983,0-3.59,1.582-3.59,3.535c0,0.276,0.032,0.545,0.092,0.805
		c-2.984-0.148-5.629-1.554-7.401-3.693C6.161,8.169,5.983,8.776,5.983,9.424c0,1.226,0.635,2.307,1.598,2.941
		c-0.588-0.018-1.142-0.177-1.627-0.441v0.044c0,1.712,1.238,3.14,2.881,3.466c-0.302,0.081-0.618,0.124-0.947,0.124
		c-0.231,0-0.455-0.023-0.675-0.063c0.458,1.403,1.783,2.425,3.354,2.454c-1.229,0.948-2.777,1.513-4.46,1.513
		c-0.29,0-0.575-0.017-0.857-0.05C6.84,20.415,8.728,21,10.755,21c6.605,0,10.215-5.385,10.215-10.056
		c0-0.153-0.002-0.306-0.009-0.457c0.701-0.498,1.31-1.121,1.791-1.83c-0.644,0.281-1.335,0.471-2.062,0.557
		C21.432,8.776,22,8.084,22.269,7.258"/>
</g>
</svg>
